<?xml version="1.0" standalone="no"?>
<!DOCTYPE svg PUBLIC "-//W3C//DTD SVG 20010904//EN"
 "http://www.w3.org/TR/2001/REC-SVG-20010904/DTD/svg10.dtd">
<svg version="1.0" xmlns="http://www.w3.org/2000/svg"
 width="512.000000pt" height="512.000000pt" viewBox="0 0 512.000000 512.000000"
 preserveAspectRatio="xMidYMid meet">

<g transform="translate(0.000000,512.000000) scale(0.100000,-0.100000)"
fill="#000000" stroke="none">
<path d="M1890 5105 c-167 -34 -278 -94 -406 -220 -154 -152 -222 -305 -231
-520 -8 -185 27 -322 120 -464 l42 -65 6 294 c7 325 11 351 74 475 70 137 199
250 345 302 99 34 246 43 340 19 175 -44 330 -168 409 -326 63 -129 71 -182
71 -495 l0 -270 36 54 c119 177 164 408 118 612 -34 157 -139 328 -262 432
-182 153 -433 218 -662 172z"/>
<path d="M1995 4763 c-194 -23 -350 -166 -385 -352 -6 -33 -10 -360 -10 -854
l0 -800 -29 24 c-16 13 -67 55 -113 92 -174 143 -343 242 -475 278 -150 41
-276 14 -370 -81 -68 -67 -88 -119 -87 -225 0 -107 18 -170 84 -312 64 -137
112 -214 390 -638 328 -498 362 -553 495 -785 191 -334 282 -460 460 -635 296
-293 653 -451 1060 -472 276 -13 537 44 783 172 396 207 671 573 773 1030 22
97 23 122 26 740 3 452 1 658 -7 700 -39 207 -219 352 -438 354 -66 1 -162
-26 -218 -60 -42 -26 -44 -25 -44 19 0 111 -90 258 -202 328 -139 88 -356 84
-493 -9 l-38 -26 -34 57 c-63 104 -143 169 -254 203 -108 34 -259 16 -344 -41
-16 -11 -33 -20 -37 -20 -5 0 -8 210 -8 468 0 501 -2 517 -53 617 -48 95 -152
181 -251 209 -59 16 -138 25 -181 19z m128 -189 c63 -21 129 -82 158 -146 l24
-53 3 -952 3 -953 84 0 84 0 3 338 3 337 28 57 c46 95 131 148 234 148 104 -1
194 -59 239 -155 23 -48 24 -58 24 -297 l0 -248 90 0 90 0 0 158 c0 144 2 161
24 207 97 209 372 213 477 7 23 -45 24 -56 27 -299 l4 -253 82 0 82 0 10 90
c9 76 16 97 44 138 18 27 55 64 83 83 43 29 59 34 123 37 60 3 81 0 118 -18
59 -28 130 -107 145 -162 9 -32 11 -208 9 -688 l-4 -645 -26 -95 c-73 -265
-187 -460 -374 -645 -200 -197 -448 -325 -719 -371 -141 -24 -388 -15 -535 20
-261 61 -472 179 -670 376 -164 162 -284 327 -480 660 -123 208 -234 386 -502
807 -358 563 -427 705 -404 827 15 78 106 125 208 106 164 -31 435 -227 743
-539 60 -61 113 -111 117 -111 5 0 8 459 8 1020 0 894 2 1025 15 1057 57 135
196 202 328 157z"/>
</g>
</svg>
